<?xml version="1.0" encoding="utf-8"?>
<!-- Generator: Adobe Illustrator 15.0.0, SVG Export Plug-In . SVG Version: 6.00 Build 0)  -->
<!DOCTYPE svg PUBLIC "-//W3C//DTD SVG 1.1//EN" "http://www.w3.org/Graphics/SVG/1.1/DTD/svg11.dtd">
<svg version="1.1" id="Layer_1" xmlns="http://www.w3.org/2000/svg" xmlns:xlink="http://www.w3.org/1999/xlink" x="0px" y="0px"
	 width="793.701px" height="256.367px" viewBox="0 0 793.701 256.367" enable-background="new 0 0 793.701 256.367"
	 xml:space="preserve">
<g>
	<g>
		<rect x="437.061" y="16.868" fill="#15120A" width="4.075" height="235.995"/>
		<g>
			<path fill="#009580" d="M112.937,148.188H91.803c-0.196,0.025-0.386,0.035-0.581,0.035c-2.711,0-4.933-2.201-4.933-4.943
				c0-0.62,0.119-1.235,0.34-1.799l0,0l0,0c0.168-0.42,0.396-0.818,0.661-1.18l69.125-123.395H95.655L14.826,159.348
				c-2.498,3.854-3.976,8.461-3.976,13.42c0,13.596,11.041,24.625,24.638,24.625c0.894,0,1.773-0.041,2.653-0.14h97.877
				c0,0,10.094-1.61,16.856-11.585l66.862-118.087l-60.632,0.104L112.937,148.188z M247.396,16.868l-27.658,50.713h27.658
				l-70.603,130.229h58.517c0,0,3.75-0.582,6.484-5.41l70.58-124.716H372.5l28.979-50.816H247.396z"/>
			<g>
				<path fill="#15120A" d="M135.415,211.49l-6.998,6.021c-4.766-4.522-10.137-6.808-16.073-6.808c-5.032,0-9.266,1.55-12.698,4.641
					c-3.45,3.084-5.153,6.922-5.153,11.446c0,3.173,0.756,5.979,2.276,8.419c1.528,2.445,3.686,4.376,6.46,5.768
					c2.787,1.422,5.876,2.104,9.278,2.104c2.92,0,5.572-0.484,7.975-1.475c2.406-0.963,5.048-2.748,7.935-5.33l6.787,6.388
					c-3.892,3.403-7.57,5.791-11.006,7.108c-3.469,1.321-7.414,1.987-11.845,1.987c-8.166,0-14.87-2.338-20.067-7.022
					c-5.216-4.678-7.816-10.655-7.816-17.954c0-4.722,1.186-8.942,3.567-12.591c2.357-3.688,5.763-6.646,10.171-8.879
					c4.438-2.231,9.183-3.346,14.3-3.346c4.341,0,8.511,0.826,12.521,2.479C129.042,206.089,132.508,208.445,135.415,211.49z"/>
				<path fill="#15120A" d="M171.808,215.506h9.766v35.066h-9.766v-3.731c-1.899,1.646-3.801,2.815-5.725,3.543
					c-1.929,0.708-3.998,1.072-6.24,1.072c-5.012,0-9.369-1.761-13.033-5.261c-3.668-3.521-5.5-7.881-5.5-13.101
					c0-5.411,1.766-9.848,5.319-13.315c3.548-3.438,7.869-5.174,12.929-5.174c2.332,0,4.533,0.385,6.572,1.179
					c2.062,0.812,3.948,1.987,5.679,3.573L171.808,215.506L171.808,215.506z M161.541,222.732c-3.005,0-5.508,0.955-7.521,2.871
					c-1.982,1.924-2.982,4.394-2.982,7.396c0,3.028,1.003,5.53,3.048,7.479c2.024,1.955,4.527,2.929,7.505,2.929
					c3.074,0,5.596-0.974,7.618-2.882c2.005-1.932,3.021-4.435,3.021-7.56c0-3.052-1.016-5.516-3.021-7.403
					C167.186,223.671,164.625,222.732,161.541,222.732z"/>
				<path fill="#15120A" d="M191.436,215.506h9.762v3.588c2.211-1.674,4.216-2.853,6.01-3.514c1.789-0.655,3.637-0.975,5.523-0.975
					c3.864,0,7.125,1.211,9.802,3.629c2.27,2.062,3.402,5.127,3.402,9.149v23.188h-9.637v-15.364c0-4.181-0.22-6.964-0.644-8.328
					c-0.39-1.385-1.136-2.431-2.182-3.151c-1.024-0.703-2.313-1.07-3.832-1.07c-1.976,0-3.665,0.591-5.075,1.792
					c-1.409,1.192-2.398,2.84-2.957,4.933c-0.266,1.096-0.411,3.471-0.411,7.109v14.08h-9.762L191.436,215.506L191.436,215.506z"/>
				<path fill="#15120A" d="M273.44,222.602l-8.113,4.017c-1.541-1.433-3.027-2.433-4.536-2.988
					c-1.484-0.555-3.225-0.842-5.24-0.842c-3.653,0-6.608,0.989-8.859,2.944c-2.244,1.951-3.393,4.468-3.393,7.535
					c0,2.998,1.105,5.416,3.261,7.299c2.18,1.891,5.019,2.84,8.561,2.84c4.371,0,7.759-1.334,10.206-4.01l7.706,4.729
					c-4.192,4.883-10.072,7.33-17.667,7.33c-6.847,0-12.218-1.825-16.087-5.476c-3.871-3.646-5.795-7.918-5.795-12.81
					c0-3.39,0.941-6.539,2.826-9.385c1.875-2.849,4.493-5.106,7.873-6.734c3.376-1.62,7.144-2.446,11.326-2.446
					c3.855,0,7.321,0.695,10.393,2.071C269,218.063,271.496,220.031,273.44,222.602z"/>
				<path fill="#15120A" d="M282.211,215.506h9.857v16.863c0,3.304,0.258,5.586,0.754,6.871c0.5,1.27,1.308,2.259,2.422,2.962
					c1.103,0.729,2.476,1.071,4.094,1.071c1.632,0,3.01-0.344,4.151-1.03c1.122-0.694,1.958-1.733,2.536-3.093
					c0.395-0.996,0.589-3.164,0.589-6.473v-17.173h9.768v14.841c0,6.129-0.542,10.317-1.62,12.584
					c-1.287,2.749-3.235,4.853-5.773,6.315c-2.569,1.481-5.809,2.21-9.735,2.21c-4.266,0-7.711-0.866-10.338-2.561
					c-2.629-1.719-4.488-4.123-5.568-7.209c-0.77-2.119-1.138-5.973-1.138-11.586L282.211,215.506L282.211,215.506z M300.904,196.46
					h11.546l-13.08,12.634h-7.003L300.904,196.46z"/>
				<path fill="#15120A" d="M326.171,215.506h9.761v3.588c2.221-1.674,4.218-2.853,6.02-3.514c1.806-0.655,3.632-0.975,5.514-0.975
					c3.855,0,7.133,1.211,9.812,3.629c2.268,2.062,3.41,5.127,3.41,9.149v23.188h-9.664v-15.364c0-4.181-0.205-6.964-0.627-8.328
					c-0.409-1.385-1.146-2.431-2.181-3.151c-1.022-0.703-2.302-1.07-3.828-1.07c-1.971,0-3.658,0.591-5.077,1.792
					c-1.414,1.192-2.404,2.84-2.95,4.933c-0.278,1.096-0.429,3.471-0.429,7.109v14.08h-9.761V215.506z"/>
			</g>
		</g>
		<g>
			<path fill="#009580" d="M650.686,68.373c-4.888,2.492-10.422,3.909-16.284,3.909c-6.357,0-12.331-1.661-17.5-4.557v88.94h-7.861
				v32.692h48.93v-32.979h-7.283L650.686,68.373L650.686,68.373z"/>
			<polygon fill="#15120A" points="481.964,216.325 481.964,211.154 491.829,211.154 491.829,216.325 489.747,216.325 
				489.747,243.02 491.927,245.697 498.716,245.697 500.849,243.02 500.849,216.325 498.767,216.325 498.767,211.154 
				508.63,211.154 508.63,216.325 506.596,216.325 506.596,244.993 501.985,250.869 488.608,250.869 484.044,244.993 
				484.044,216.325 			"/>
			<polygon fill="#15120A" points="512.294,250.869 512.294,245.697 514.386,245.697 514.386,216.325 512.294,216.325 
				512.294,211.154 520.275,211.154 533.12,238.628 533.12,216.325 531.038,216.325 531.038,211.154 540.897,211.154 
				540.897,216.325 538.815,216.325 538.815,245.697 540.897,245.697 540.897,250.869 532.669,250.869 520.075,223.975 
				520.075,245.697 522.165,245.697 522.165,250.869 			"/>
			<polygon fill="#15120A" points="544.565,250.869 544.565,245.697 546.646,245.697 546.646,216.325 544.565,216.325 
				544.565,211.154 554.427,211.154 554.427,216.325 552.348,216.325 552.348,245.697 554.427,245.697 554.427,250.869 			"/>
			<polygon fill="#15120A" points="558.095,216.325 558.095,211.154 568.251,211.154 568.251,216.325 566.32,216.325 
				572.87,241.492 579.413,216.325 577.474,216.325 577.474,211.154 588.036,211.154 588.036,216.325 585.509,216.325 
				577.825,245.697 580.3,245.697 580.3,250.869 565.675,250.869 565.675,245.697 567.909,245.697 560.279,216.325 			"/>
			<polygon fill="#15120A" points="592.69,250.869 592.69,245.697 594.775,245.697 594.775,216.325 592.69,216.325 592.69,211.154 
				614.355,211.154 614.355,218.107 610.387,218.107 610.387,216.325 600.476,216.325 600.476,228.491 605.68,228.491 
				605.68,226.707 609.696,226.707 609.696,235.307 605.68,235.307 605.68,233.588 600.476,233.588 600.476,245.697 
				610.387,245.697 610.387,243.922 614.355,243.922 614.355,250.869 			"/>
			<path fill="#15120A" d="M619.407,250.869v-5.172h2.082v-29.372h-2.082v-5.171h18.637l4.563,5.875v9.178l-3.125,4.011l3.125,4.011
				v11.469h2.083v5.173h-7.78v-15.3l-2.185-2.816h-7.536v12.943h2.086v5.173L619.407,250.869L619.407,250.869z M634.725,227.664
				l2.185-2.74v-5.865l-2.185-2.732h-7.536v11.339L634.725,227.664L634.725,227.664z"/>
			<polygon fill="#15120A" points="649.741,244.993 649.741,240.092 655.493,240.092 655.493,243.02 657.575,245.697 
				664.468,245.697 666.544,243.02 666.544,236.395 664.468,233.718 654.302,233.718 649.741,227.794 649.741,217.029 
				654.302,211.154 667.735,211.154 672.294,217.029 672.294,222.184 666.544,222.184 666.544,219.059 664.468,216.325 
				657.575,216.325 655.493,219.059 655.493,225.75 657.575,228.557 667.735,228.557 672.294,234.423 672.294,244.993 
				667.735,250.869 654.302,250.869 			"/>
			<polygon fill="#15120A" points="677.351,250.869 677.351,245.697 679.437,245.697 679.437,216.325 677.351,216.325 
				677.351,211.154 687.221,211.154 687.221,216.325 685.13,216.325 685.13,245.697 687.221,245.697 687.221,250.869 			"/>
			<polygon fill="#15120A" points="690.886,218.936 690.886,211.154 716.359,211.154 716.359,218.936 712.347,218.936 
				712.347,216.325 706.497,216.325 706.497,245.697 708.583,245.697 708.583,250.869 698.667,250.869 698.667,245.697 
				700.749,245.697 700.749,216.325 694.85,216.325 694.85,218.936 			"/>
			<polygon fill="#15120A" points="720.034,250.869 720.034,245.697 722.11,245.697 722.11,216.325 720.034,216.325 
				720.034,211.154 729.893,211.154 729.893,216.325 727.813,216.325 727.813,245.697 729.893,245.697 729.893,250.869 			"/>
			<polygon fill="#15120A" points="733.563,250.869 733.563,245.697 735.64,245.697 735.64,216.325 733.563,216.325 
				733.563,211.154 755.223,211.154 755.223,218.107 751.259,218.107 751.259,216.325 741.345,216.325 741.345,228.491 
				746.55,228.491 746.55,226.707 750.565,226.707 750.565,235.307 746.55,235.307 746.55,233.588 741.345,233.588 741.345,245.697 
				751.259,245.697 751.259,243.922 755.223,243.922 755.223,250.869 			"/>
			<polygon fill="#15120A" points="760.278,244.993 760.278,240.092 766.025,240.092 766.025,243.02 768.107,245.697 
				774.995,245.697 777.087,243.02 777.087,236.395 774.995,233.718 764.841,233.718 760.278,227.794 760.278,217.029 
				764.841,211.154 778.271,211.154 782.827,217.029 782.827,222.184 777.087,222.184 777.087,219.059 774.995,216.325 
				768.107,216.325 766.025,219.059 766.025,225.75 768.107,228.557 778.271,228.557 782.827,234.423 782.827,244.993 
				778.271,250.869 764.841,250.869 			"/>
			<path fill="#009580" d="M574.376,103.371l10.774-10.774V43.663l-26.794-26.795h-76.6v34.07h6.99v107.184h-6.99v31.235h76.668
				l26.873-26.869v-48.2L574.376,103.371z M522.823,50.36h22.426l8.887,8.884v19.075l-8.666,8.662h-22.647L522.823,50.36
				L522.823,50.36z M554.643,148.223l-10.083,10.086h-21.736v-38.636h21.85l9.97,9.981V148.223z"/>
			<polygon fill="#009580" points="710.157,16.868 743.937,16.868 749.322,22.249 749.322,16.868 782.675,16.868 782.675,68.673 
				749.173,68.673 749.173,58.514 741.169,50.504 724.128,50.504 715.466,59.17 715.466,78.896 723.257,86.693 755.585,86.693 
				782.852,113.958 782.852,161.908 755.206,189.554 721.216,189.554 714.532,182.87 714.532,189.357 681.607,189.357 
				681.607,137.439 714.519,137.439 714.519,147.641 723.398,156.518 741.31,156.518 749.105,148.729 749.105,126.66 
				742.152,119.71 710.157,119.71 682.171,91.737 682.171,44.827 			"/>
			<path fill="#009580" d="M641.652,65.524c-2.331,0.581-4.769,0.892-7.28,0.892c-10.055,0-18.957-4.975-24.406-12.596
				c1.611,0.822,3.436,1.495,5.469,2.002c0.533,1.453,1.105,2.929,1.785,4.439c0.24,0.55,0.773,0.877,1.332,0.877
				c0.197,0,0.393-0.041,0.59-0.123c0.734-0.332,1.064-1.191,0.74-1.92c-0.389-0.888-0.748-1.756-1.084-2.615
				c2.172,0.337,4.496,0.509,6.951,0.509c0.933,0,1.877-0.026,2.846-0.08c0.484,1.643,1.017,3.307,1.613,4.995
				c0.205,0.606,0.77,0.976,1.365,0.976c0.165,0,0.325-0.027,0.484-0.083c0.756-0.268,1.162-1.094,0.892-1.853
				c-0.5-1.438-0.959-2.861-1.383-4.263c1.897-0.203,3.845-0.483,5.825-0.871c-0.241-0.97-0.442-1.915-0.605-2.852
				c-2.041,0.399-4.062,0.68-6.031,0.855c-1.397-5.213-2.281-10.169-2.797-14.689c2.226-0.203,4.488-0.528,6.767-1.015
				c0.928-0.192,1.84-0.409,2.731-0.646c0.336-1.179,0.719-2.295,1.143-3.351c-1.448,0.438-2.946,0.825-4.48,1.146
				c-2.175,0.468-4.34,0.777-6.455,0.969c-0.523-5.999-0.441-11.067-0.217-14.733c1.122-0.11,2.254-0.268,3.393-0.511
				c1.457-0.311,2.851-0.72,4.164-1.207c1.938,3.008,3.783,6.622,5.473,10.395c0.393-0.706,0.799-1.369,1.199-2.003
				c0.216-0.329,0.435-0.648,0.654-0.967c-1.449-3.084-3.007-6.037-4.64-8.622c1.108-0.577,2.124-1.219,3.006-1.92
				c0.632-0.498,1.175-1.01,1.642-1.542c1.896,1.239,4.049,2.92,6.203,5.153c0.828-0.716,1.625-1.34,2.351-1.866
				c-2.397-2.502-4.812-4.37-6.993-5.747c0.406-1.029,0.523-2.066,0.311-3.088c-0.139-0.62-0.385-1.206-0.734-1.739
				c4.729,1.507,8.945,4.159,12.338,7.627c1.096-0.499,2.127-0.865,3.048-1.07c-6.03-6.682-14.751-10.883-24.459-10.883
				c-18.19,0-32.938,14.74-32.938,32.931c0,18.189,14.748,32.928,32.938,32.928c4.038,0,7.903-0.729,11.481-2.061
				C643.868,66.826,642.532,66.167,641.652,65.524z M627.786,54.012c-3.678,0.131-7.13-0.126-10.154-0.717
				c-1.865-5.551-2.654-10.485-2.805-14.774c2.596,0.545,5.424,0.843,8.405,0.843c0.589,0,1.183-0.026,1.778-0.047
				C625.536,43.824,626.411,48.775,627.786,54.012z M619.31,11.192c2.141-1.698,5.213-3.033,8.652-3.765
				c1.774-0.372,3.521-0.563,5.199-0.563c4.418,0,7.784,1.368,8.198,3.315c0.065,0.313,0.054,0.644-0.028,0.984
				c-2.975-1.551-5.039-2.066-5.113-2.066c-0.807,0-1.457,0.648-1.457,1.458c0,0.748,0.574,1.37,1.3,1.445
				c0.188,0.052,1.616,0.498,3.703,1.604c-0.267,0.26-0.552,0.518-0.876,0.775c-0.813,0.644-1.778,1.245-2.842,1.772
				c-0.871-1.195-1.76-2.287-2.668-3.22c-0.563-0.572-1.479-0.586-2.057-0.025c-0.574,0.559-0.589,1.477-0.029,2.056
				c0.668,0.688,1.326,1.475,1.979,2.338c-0.97,0.321-1.979,0.605-3.034,0.837c-0.859,0.18-1.709,0.317-2.548,0.408
				c0.22-2.162,0.442-3.397,0.449-3.446c0.151-0.794-0.368-1.551-1.156-1.708c-0.791-0.143-1.556,0.372-1.706,1.16
				c-0.042,0.214-0.309,1.679-0.553,4.144c-1.816-0.021-3.439-0.285-4.746-0.726c1.277-2,2.292-3.056,2.324-3.086
				c0.568-0.568,0.568-1.491,0-2.056c-0.571-0.571-1.492-0.571-2.061,0c-0.178,0.174-1.367,1.41-2.803,3.658
				c-0.303-0.344-0.516-0.704-0.598-1.102C616.577,14.163,617.48,12.632,619.31,11.192z M618.521,20.549
				c1.645,0.634,3.665,1.003,5.973,1.047c-0.234,3.755-0.312,8.83,0.215,14.817c-3.563,0.11-6.926-0.174-9.896-0.878
				c0.132-3.718,0.741-6.864,1.49-9.393C616.948,23.963,617.735,22.108,618.521,20.549z M613.917,14.502
				c-0.041,0.498-0.033,0.995,0.074,1.485c0.258,1.201,0.937,2.242,1.955,3.083c-1.873,3.643-3.718,8.861-4.066,15.584
				c-3.514-1.313-5.834-3.273-6.594-5.592C606.726,23.401,609.773,18.376,613.917,14.502z M605.839,45.264
				c-0.045-0.229-0.16-0.429-0.303-0.601c-0.748-2.62-1.162-5.386-1.162-8.247c0-1.009,0.053-2.016,0.15-3.001
				c1.662,1.829,4.137,3.294,7.299,4.322c0.077,4.349,0.793,9.245,2.458,14.69C609.661,50.938,606.526,48.482,605.839,45.264z"/>
		</g>
	</g>
	<g>
		<path fill="#009580" d="M660.558,16.473c-5.622-0.245-31.752,16.492-18.227,46.643c1.049,2.34,13.849-21.804,13.061-28.069
			c0,0,2.838,9.765-9.564,28.824C645.827,63.871,678.933,50.934,660.558,16.473z"/>
		<path fill="#009580" d="M648.146,64.292c0,0,14.325-5.98,17.151-18.384c0,0,4.283-1.131,7.033,1.74
			c-0.103,4.427-7.348,20.047-21.459,17.953c0,0,9.51-1.022,12.741-7.901C663.612,57.7,659.012,63.977,648.146,64.292z"/>
	</g>
</g>
</svg>
